<?xml version="1.0" encoding="UTF-8" standalone="no"?>
<svg
   xmlns:dc="http://purl.org/dc/elements/1.1/"
   xmlns:cc="http://creativecommons.org/ns#"
   xmlns:rdf="http://www.w3.org/1999/02/22-rdf-syntax-ns#"
   xmlns:svg="http://www.w3.org/2000/svg"
   xmlns="http://www.w3.org/2000/svg"
   viewBox="0 0 256 256"
   height="256"
   width="256"
   xml:space="preserve"
   id="svg2"
   version="1.1"><metadata
     id="metadata8"><rdf:RDF><cc:Work
         rdf:about=""><dc:format>image/svg+xml</dc:format><dc:type
           rdf:resource="http://purl.org/dc/dcmitype/StillImage" /></cc:Work></rdf:RDF></metadata><defs
     id="defs6"><clipPath
       id="clipPath18"
       clipPathUnits="userSpaceOnUse"><path
         id="path16"
         d="M 0,192 H 192 V 0 H 0 Z" /></clipPath><clipPath
       id="clipPath26"
       clipPathUnits="userSpaceOnUse"><path
         id="path24"
         d="M 33.5488,158.451 H 282.451 V -90.4512 H 33.5488 Z" /></clipPath><clipPath
       id="clipPath30"
       clipPathUnits="userSpaceOnUse"><path
         id="path28"
         d="M 158,-90.451 33.549,34 158,158.451 282.451,34 Z" /></clipPath><clipPath
       id="clipPath34"
       clipPathUnits="userSpaceOnUse"><path
         id="path32"
         d="M -32768,32767 H 32767 V -32768 H -32768 Z" /></clipPath><linearGradient
       id="linearGradient42"
       spreadMethod="pad"
       gradientTransform="matrix(-121.33324,121.66661,121.66661,121.33324,214.58253,-22.737997)"
       gradientUnits="userSpaceOnUse"
       y2="0"
       x2="1"
       y1="0"
       x1="0"><stop
         id="stop36"
         offset="0"
         style="stop-opacity:0;stop-color:#ffffff" /><stop
         id="stop38"
         offset="0.72566061"
         style="stop-opacity:0;stop-color:#ffffff" /><stop
         id="stop40"
         offset="1"
         style="stop-opacity:1;stop-color:#ffffff" /></linearGradient><mask
       id="mask44"
       height="1"
       width="1"
       y="0"
       x="0"
       maskUnits="userSpaceOnUse"><g
         id="g54"><g
           id="g52"
           clip-path="url(#clipPath34)"><g
             id="g50"><g
               id="g48"><path
                 id="path46"
                 style="fill:url(#linearGradient42);stroke:none"
                 d="M -32768,32767 H 32767 V -32768 H -32768 Z" /></g></g></g></g></mask><linearGradient
       id="linearGradient62"
       spreadMethod="pad"
       gradientTransform="matrix(-121.33324,121.66661,121.66661,121.33324,214.58253,-22.737997)"
       gradientUnits="userSpaceOnUse"
       y2="0"
       x2="1"
       y1="0"
       x1="0"><stop
         id="stop56"
         offset="0"
         style="stop-opacity:1;stop-color:#1d1d1b" /><stop
         id="stop58"
         offset="0.72566061"
         style="stop-opacity:1;stop-color:#1d1d1b" /><stop
         id="stop60"
         offset="1"
         style="stop-opacity:1;stop-color:#1d1d1b" /></linearGradient><clipPath
       id="clipPath92"
       clipPathUnits="userSpaceOnUse"><path
         id="path90"
         d="M 8,96 C 8,47.399 47.398,8 96,8 v 0 c 48.6,0 88,39.399 88,88 v 0 c 0,48.601 -39.4,88 -88,88 v 0 C 47.398,184 8,144.601 8,96" /></clipPath><clipPath
       id="clipPath104"
       clipPathUnits="userSpaceOnUse"><path
         id="path102"
         d="M 77.439,72.964 34.13,51.31 c -4.467,-2.234 -7.321,-4.063 -9.29,-7.091 v 0 C 40.841,22.266 66.754,8 96,8 v 0 c 29.245,0 55.158,14.266 71.16,36.219 v 0 c -1.97,3.028 -4.824,4.857 -9.29,7.091 v 0 c -39.617,19.808 -43.309,21.654 -43.309,21.654 v 0 z" /></clipPath><clipPath
       id="clipPath112"
       clipPathUnits="userSpaceOnUse"><path
         id="path110"
         d="M 18.4013,62.2394 H 96 V 4.90701 H 18.4013 Z" /></clipPath><clipPath
       id="clipPath128"
       clipPathUnits="userSpaceOnUse"><path
         id="path126"
         d="M 8,96 C 8,47.399 47.398,8 96,8 v 0 c 48.6,0 88,39.399 88,88 v 0 c 0,48.601 -39.4,88 -88,88 v 0 C 47.398,184 8,144.601 8,96" /></clipPath><clipPath
       id="clipPath140"
       clipPathUnits="userSpaceOnUse"><path
         id="path138"
         d="M 71.252,94.619 V 69.871 C 71.252,57.497 74.345,48.307 96,38.936 v 0 c 21.654,9.371 24.748,18.561 24.748,30.935 v 0 24.748 z" /></clipPath><clipPath
       id="clipPath148"
       clipPathUnits="userSpaceOnUse"><path
         id="path146"
         d="M 75.4347,104.186 H 131.152 V 39.9112 H 75.4347 Z" /></clipPath><clipPath
       id="clipPath164"
       clipPathUnits="userSpaceOnUse"><path
         id="path162"
         d="m 68.672,91.5249 h 56.203 V 30.682 H 68.672 Z" /></clipPath><clipPath
       id="clipPath178"
       clipPathUnits="userSpaceOnUse"><path
         id="path176"
         d="M 8,96 C 8,47.399 47.398,8 96,8 v 0 c 48.6,0 88,39.399 88,88 v 0 c 0,48.601 -39.4,88 -88,88 v 0 C 47.398,184 8,144.601 8,96" /></clipPath><clipPath
       id="clipPath190"
       clipPathUnits="userSpaceOnUse"><path
         id="path188"
         d="M 55.785,131.74 V 106.992 C 55.785,88.854 72.959,65.23 96,65.23 v 0 c 23.041,0 40.216,23.627 40.216,41.762 v 0 24.748 c 0,17.195 -8.217,40.216 -40.216,40.216 v 0 c -32.001,0 -40.215,-23.021 -40.215,-40.216" /></clipPath><clipPath
       id="clipPath198"
       clipPathUnits="userSpaceOnUse"><path
         id="path196"
         d="M 55.7845,171.956 H 96 V 63.6835 H 55.7845 Z" /></clipPath><clipPath
       id="clipPath212"
       clipPathUnits="userSpaceOnUse"><path
         id="path210"
         d="m 96,148.507 h 43.309 V 63.6835 H 96 Z" /></clipPath><clipPath
       id="clipPath228"
       clipPathUnits="userSpaceOnUse"><path
         id="path226"
         d="M 55.7845,171.956 H 96 V 93.5973 H 55.7845 Z" /></clipPath></defs><g
     transform="matrix(1.3333333,0,0,-1.3333333,0,256)"
     id="g10"><g
       id="g12"><g
         clip-path="url(#clipPath18)"
         id="g14"><g
           id="g20"><g
             id="g22" /><g
             id="g80"><g
               style="opacity:0.5"
               id="g78"
               clip-path="url(#clipPath26)"><g
                 id="g76"><g
                   id="g74"
                   clip-path="url(#clipPath30)"><g
                     id="g72"><g
                       id="g64" /><g
                       id="g70"
                       mask="url(#mask44)"><g
                         id="g68"><path
                           id="path66"
                           style="fill:url(#linearGradient62);stroke:none"
                           d="M 158,-90.451 33.549,34 158,158.451 282.451,34 Z" /></g></g></g></g></g></g></g></g><g
           transform="translate(184,96)"
           id="g82"><path
             id="path84"
             style="fill:#93c01f;fill-opacity:1;fill-rule:nonzero;stroke:none"
             d="m 0,0 c 0,-48.601 -39.399,-88 -88,-88 -48.602,0 -88,39.399 -88,88 0,48.601 39.398,88 88,88 C -39.399,88 0,48.601 0,0" /></g></g></g><g
       id="g86"><g
         clip-path="url(#clipPath92)"
         id="g88"><g
           transform="translate(77.439,72.964)"
           id="g94"><path
             id="path96"
             style="fill:#dbdbc7;fill-opacity:1;fill-rule:nonzero;stroke:none"
             d="m 0,0 -43.309,-21.654 c -12.374,-6.187 -12.374,-9.281 -15.467,-43.309 H 95.898 C 92.805,-30.935 92.805,-27.841 80.431,-21.654 40.814,-1.846 37.122,0 37.122,0 Z" /></g></g></g><g
       id="g98"><g
         clip-path="url(#clipPath104)"
         id="g100"><g
           id="g106"><g
             id="g108" /><g
             id="g120"><g
               style="opacity:0.30000299"
               id="g118"
               clip-path="url(#clipPath112)"><g
                 id="g116"
                 transform="translate(96,4.907)"><path
                   id="path114"
                   style="fill:#ffffff;fill-opacity:1;fill-rule:nonzero;stroke:none"
                   d="m 0,0 h -77.599 l 0.262,57.332 h 24.486 L 0,26.82 Z" /></g></g></g></g></g></g><g
       id="g122"><g
         clip-path="url(#clipPath128)"
         id="g124"><g
           transform="translate(96,38.9355)"
           id="g130"><path
             id="path132"
             style="fill:#85ded8;fill-opacity:1;fill-rule:evenodd;stroke:none"
             d="M 0,0 C -21.654,9.371 -24.748,18.561 -24.748,30.935 V 55.683 H 24.748 V 30.935 C 24.748,18.561 21.654,9.371 0,0" /></g></g></g><g
       id="g134"><g
         clip-path="url(#clipPath140)"
         id="g136"><g
           id="g142"><g
             id="g144" /><g
             id="g156"><g
               style="opacity:0.14999402"
               id="g154"
               clip-path="url(#clipPath148)"><g
                 id="g152"
                 transform="translate(75.4347,71.961)"><path
                   id="path150"
                   style="fill:#231f20;fill-opacity:1;fill-rule:nonzero;stroke:none"
                   d="m 0,0 55.663,32.137 0.055,0.088 V -32.05 l -27.836,16.069 -0.048,-0.088 z" /></g></g></g></g><g
           id="g158"><g
             id="g160" /><g
             id="g170"><g
               style="opacity:0.14999402"
               id="g168"
               clip-path="url(#clipPath164)"><path
                 id="path166"
                 style="fill:#231f20;fill-opacity:1;fill-rule:nonzero;stroke:none"
                 d="M 124.875,91.525 H 68.672 V 30.682 h 56.203 z" /></g></g></g></g></g><g
       id="g172"><g
         clip-path="url(#clipPath178)"
         id="g174"><g
           transform="translate(96,171.9559)"
           id="g180"><path
             id="path182"
             style="fill:#85ded8;fill-opacity:1;fill-rule:evenodd;stroke:none"
             d="m 0,0 c 31.999,0 40.215,-23.021 40.215,-40.215 v -24.748 c 0,-18.135 -17.174,-41.763 -40.215,-41.763 -23.041,0 -40.215,23.624 -40.215,41.763 v 24.748 C -40.215,-23.021 -32.001,0 0,0" /></g></g></g><g
       id="g184"><g
         clip-path="url(#clipPath190)"
         id="g186"><g
           id="g192"><g
             id="g194" /><g
             id="g204"><g
               style="opacity:0.14999402"
               id="g202"
               clip-path="url(#clipPath198)"><path
                 id="path200"
                 style="fill:#ffffff;fill-opacity:1;fill-rule:nonzero;stroke:none"
                 d="M 55.785,171.956 H 96 V 63.684 H 55.785 Z" /></g></g></g><g
           id="g206"><g
             id="g208" /><g
             id="g220"><g
               style="opacity:0.14999402"
               id="g218"
               clip-path="url(#clipPath212)"><g
                 id="g216"
                 transform="translate(137.5296,148.5069)"><path
                   id="path214"
                   style="fill:#231f20;fill-opacity:1;fill-rule:nonzero;stroke:none"
                   d="M 0,0 -41.53,-23.976 V -54.91 -84.823 H 1.779 Z" /></g></g></g></g><g
           id="g222"><g
             id="g224" /><g
             id="g236"><g
               style="opacity:0.30000299"
               id="g234"
               clip-path="url(#clipPath228)"><g
                 id="g232"
                 transform="translate(96,124.5307)"><path
                   id="path230"
                   style="fill:#ffffff;fill-opacity:1;fill-rule:nonzero;stroke:none"
                   d="M 0,0 V 47.425 H -40.215 V -7.717 L 0,-30.933 Z" /></g></g></g></g></g></g></g></svg>