<?xml version="1.0" encoding="UTF-8" standalone="no"?>
<svg
   xmlns:dc="http://purl.org/dc/elements/1.1/"
   xmlns:cc="http://creativecommons.org/ns#"
   xmlns:rdf="http://www.w3.org/1999/02/22-rdf-syntax-ns#"
   xmlns:svg="http://www.w3.org/2000/svg"
   xmlns="http://www.w3.org/2000/svg"
   viewBox="0 0 256 256"
   height="256"
   width="256"
   xml:space="preserve"
   id="svg2"
   version="1.1"><metadata
     id="metadata8"><rdf:RDF><cc:Work
         rdf:about=""><dc:format>image/svg+xml</dc:format><dc:type
           rdf:resource="http://purl.org/dc/dcmitype/StillImage" /></cc:Work></rdf:RDF></metadata><defs
     id="defs6"><clipPath
       id="clipPath18"
       clipPathUnits="userSpaceOnUse"><path
         id="path16"
         d="M 0,192 H 192 V 0 H 0 Z" /></clipPath><clipPath
       id="clipPath26"
       clipPathUnits="userSpaceOnUse"><path
         id="path24"
         d="M 33.5488,158.451 H 282.451 V -90.4512 H 33.5488 Z" /></clipPath><clipPath
       id="clipPath30"
       clipPathUnits="userSpaceOnUse"><path
         id="path28"
         d="M 158,-90.451 33.549,34 158,158.451 282.451,34 Z" /></clipPath><clipPath
       id="clipPath34"
       clipPathUnits="userSpaceOnUse"><path
         id="path32"
         d="M -32768,32767 H 32767 V -32768 H -32768 Z" /></clipPath><linearGradient
       id="linearGradient42"
       spreadMethod="pad"
       gradientTransform="matrix(-121.33324,121.66661,121.66661,121.33324,214.58253,-22.737997)"
       gradientUnits="userSpaceOnUse"
       y2="0"
       x2="1"
       y1="0"
       x1="0"><stop
         id="stop36"
         offset="0"
         style="stop-opacity:0;stop-color:#ffffff" /><stop
         id="stop38"
         offset="0.72566061"
         style="stop-opacity:0;stop-color:#ffffff" /><stop
         id="stop40"
         offset="1"
         style="stop-opacity:1;stop-color:#ffffff" /></linearGradient><mask
       id="mask44"
       height="1"
       width="1"
       y="0"
       x="0"
       maskUnits="userSpaceOnUse"><g
         id="g54"><g
           id="g52"
           clip-path="url(#clipPath34)"><g
             id="g50"><g
               id="g48"><path
                 id="path46"
                 style="fill:url(#linearGradient42);stroke:none"
                 d="M -32768,32767 H 32767 V -32768 H -32768 Z" /></g></g></g></g></mask><linearGradient
       id="linearGradient62"
       spreadMethod="pad"
       gradientTransform="matrix(-121.33324,121.66661,121.66661,121.33324,214.58253,-22.737997)"
       gradientUnits="userSpaceOnUse"
       y2="0"
       x2="1"
       y1="0"
       x1="0"><stop
         id="stop56"
         offset="0"
         style="stop-opacity:1;stop-color:#1d1d1b" /><stop
         id="stop58"
         offset="0.72566061"
         style="stop-opacity:1;stop-color:#1d1d1b" /><stop
         id="stop60"
         offset="1"
         style="stop-opacity:1;stop-color:#1d1d1b" /></linearGradient><clipPath
       id="clipPath92"
       clipPathUnits="userSpaceOnUse"><path
         id="path90"
         d="M 8,96 C 8,47.399 47.398,8 96,8 v 0 c 48.6,0 88,39.399 88,88 v 0 c 0,48.601 -39.4,88 -88,88 v 0 C 47.398,184 8,144.601 8,96" /></clipPath><clipPath
       id="clipPath104"
       clipPathUnits="userSpaceOnUse"><path
         id="path102"
         d="m 77.434,72.981 c 0,0 -6.188,-3.094 -43.32,-21.66 v 0 C 29.65,49.089 26.796,47.26 24.826,44.237 v 0 C 40.827,22.273 66.745,8 96,8 v 0 c 29.254,0 55.173,14.273 71.173,36.237 v 0 c -1.97,3.023 -4.823,4.852 -9.286,7.084 v 0 c -39.628,19.814 -43.321,21.66 -43.321,21.66 v 0 z" /></clipPath><clipPath
       id="clipPath112"
       clipPathUnits="userSpaceOnUse"><path
         id="path110"
         d="M 49.1259,81.4333 H 96 V 8.0005 H 49.1259 Z" /></clipPath><clipPath
       id="clipPath128"
       clipPathUnits="userSpaceOnUse"><path
         id="path126"
         d="m 96,81.4333 h 46.876 V 8.0005 H 96 Z" /></clipPath><clipPath
       id="clipPath144"
       clipPathUnits="userSpaceOnUse"><path
         id="path142"
         d="M 8,96 C 8,47.399 47.398,8 96,8 v 0 c 48.6,0 88,39.399 88,88 v 0 c 0,48.601 -39.4,88 -88,88 v 0 C 47.398,184 8,144.601 8,96" /></clipPath><clipPath
       id="clipPath156"
       clipPathUnits="userSpaceOnUse"><path
         id="path154"
         d="M 71.246,94.641 V 69.887 C 71.246,57.51 74.34,38.944 96,8 v 0 c 21.661,30.944 24.755,49.51 24.755,61.887 v 0 24.754 z" /></clipPath><clipPath
       id="clipPath164"
       clipPathUnits="userSpaceOnUse"><path
         id="path162"
         d="M 63.9084,63.7829 H 128.206 V 8.0005 H 63.9084 Z" /></clipPath><clipPath
       id="clipPath180"
       clipPathUnits="userSpaceOnUse"><path
         id="path178"
         d="M 79.736,35.516 C 83.405,27.639 88.6,18.582 95.928,8.104 v 0 h 0.13 V 8.082 c 7.351,10.511 12.559,19.592 16.231,27.487 v 0 L 96.058,63.68 v 0.103 z" /></clipPath><clipPath
       id="clipPath192"
       clipPathUnits="userSpaceOnUse"><path
         id="path190"
         d="m 77.434,66.7928 h 37.132 V 4.90617 H 77.434 Z" /></clipPath><clipPath
       id="clipPath208"
       clipPathUnits="userSpaceOnUse"><path
         id="path206"
         d="M 63.9084,63.7829 H 128.206 V 8.0005 H 63.9084 Z" /></clipPath><clipPath
       id="clipPath220"
       clipPathUnits="userSpaceOnUse"><path
         id="path218"
         d="M 71.246,94.641 V 69.887 C 71.246,57.51 74.34,38.944 96,8 v 0 c 21.661,30.944 24.755,49.51 24.755,61.887 v 0 24.754 z" /></clipPath><clipPath
       id="clipPath228"
       clipPathUnits="userSpaceOnUse"><path
         id="path226"
         d="M 63.9084,63.7829 H 128.206 V 8.0005 H 63.9084 Z" /></clipPath><clipPath
       id="clipPath240"
       clipPathUnits="userSpaceOnUse"><path
         id="path238"
         d="M 8,96 C 8,47.399 47.398,8 96,8 v 0 c 48.6,0 88,39.399 88,88 v 0 c 0,48.601 -39.4,88 -88,88 v 0 C 47.398,184 8,144.601 8,96" /></clipPath><clipPath
       id="clipPath252"
       clipPathUnits="userSpaceOnUse"><path
         id="path250"
         d="M 55.774,131.773 V 107.019 C 55.774,88.876 72.953,65.245 96,65.245 v 0 c 23.048,0 40.227,23.635 40.227,41.774 v 0 21.66 C 136.227,145.878 128.007,172 96,172 v 0 C 63.99,172 55.774,148.972 55.774,131.773" /></clipPath><clipPath
       id="clipPath260"
       clipPathUnits="userSpaceOnUse"><path
         id="path258"
         d="M 55.7737,172 H 96 V 63.6984 H 55.7737 Z" /></clipPath></defs><g
     transform="matrix(1.3333333,0,0,-1.3333333,0,256)"
     id="g10"><g
       id="g12"><g
         clip-path="url(#clipPath18)"
         id="g14"><g
           id="g20"><g
             id="g22" /><g
             id="g80"><g
               style="opacity:0.5"
               id="g78"
               clip-path="url(#clipPath26)"><g
                 id="g76"><g
                   id="g74"
                   clip-path="url(#clipPath30)"><g
                     id="g72"><g
                       id="g64" /><g
                       id="g70"
                       mask="url(#mask44)"><g
                         id="g68"><path
                           id="path66"
                           style="fill:url(#linearGradient62);stroke:none"
                           d="M 158,-90.451 33.549,34 158,158.451 282.451,34 Z" /></g></g></g></g></g></g></g></g><g
           transform="translate(184,96)"
           id="g82"><path
             id="path84"
             style="fill:#93c01f;fill-opacity:1;fill-rule:nonzero;stroke:none"
             d="m 0,0 c 0,-48.601 -39.399,-88 -88,-88 -48.602,0 -88,39.399 -88,88 0,48.601 39.398,88 88,88 C -39.399,88 0,48.601 0,0" /></g></g></g><g
       id="g86"><g
         clip-path="url(#clipPath92)"
         id="g88"><g
           transform="translate(77.434,72.9814)"
           id="g94"><path
             id="path96"
             style="fill:#47475e;fill-opacity:1;fill-rule:evenodd;stroke:none"
             d="m 0,0 c 0,0 -6.189,-3.094 -43.321,-21.66 -12.377,-6.189 -12.377,-9.283 -15.471,-43.321 H 95.924 C 92.83,-30.943 92.83,-27.849 80.453,-21.66 40.825,-1.846 37.132,0 37.132,0 Z" /></g></g></g><g
       id="g98"><g
         clip-path="url(#clipPath104)"
         id="g100"><g
           id="g106"><g
             id="g108" /><g
             id="g120"><g
               style="opacity:0.14999402"
               id="g118"
               clip-path="url(#clipPath112)"><g
                 id="g116"
                 transform="translate(50.3692,45.0266)"><path
                   id="path114"
                   style="fill:#ffffff;fill-opacity:1;fill-rule:nonzero;stroke:none"
                   d="M 0,0 20.996,36.407 45.631,-37.026 3.406,-12.679 C -1.036,-10.12 -2.562,-4.442 0,0" /></g></g></g></g><g
           id="g122"><g
             id="g124" /><g
             id="g136"><g
               style="opacity:0.30000299"
               id="g134"
               clip-path="url(#clipPath128)"><g
                 id="g132"
                 transform="translate(141.6324,45.0266)"><path
                   id="path130"
                   style="fill:#231f20;fill-opacity:1;fill-rule:nonzero;stroke:none"
                   d="m 0,0 -20.996,36.407 -24.636,-73.433 42.226,24.347 C 1.036,-10.12 2.562,-4.442 0,0" /></g></g></g></g></g></g><g
       id="g138"><g
         clip-path="url(#clipPath144)"
         id="g140"><g
           transform="translate(96,8.0005)"
           id="g146"><path
             id="path148"
             style="fill:#dedcd9;fill-opacity:1;fill-rule:evenodd;stroke:none"
             d="m 0,0 c -21.66,30.943 -24.755,49.509 -24.755,61.887 v 24.754 h 49.51 V 61.887 C 24.755,49.509 21.66,30.943 0,0" /></g></g></g><g
       id="g150"><g
         clip-path="url(#clipPath156)"
         id="g152"><g
           id="g158"><g
             id="g160" /><g
             id="g172"><g
               style="opacity:0.30000299"
               id="g170"
               clip-path="url(#clipPath164)"><g
                 id="g168"
                 transform="translate(128.2064,8.0005)"><path
                   id="path166"
                   style="fill:#231f20;fill-opacity:1;fill-rule:nonzero;stroke:none"
                   d="m 0,0 -32.149,55.68 v 0.102 L -64.298,0.103 h 32.149 V 0 Z" /></g></g></g></g></g></g><g
       id="g174"><g
         clip-path="url(#clipPath180)"
         id="g176"><g
           transform="translate(80.5284,4.9062)"
           id="g182"><path
             id="path184"
             style="fill:#80b34f;fill-opacity:1;fill-rule:nonzero;stroke:none"
             d="M 0,0 11.687,37.132 -3.094,61.887 H 34.038 L 18.566,37.132 30.943,0 Z" /></g><g
           id="g186"><g
             id="g188" /><g
             id="g200"><g
               style="opacity:0.30000299"
               id="g198"
               clip-path="url(#clipPath192)"><g
                 id="g196"
                 transform="translate(80.5284,4.9062)"><path
                   id="path194"
                   style="fill:#231f20;fill-opacity:1;fill-rule:nonzero;stroke:none"
                   d="M 0,0 11.687,37.132 -3.094,61.887 H 34.038 L 18.566,37.132 30.943,0 Z" /></g></g></g></g><g
           id="g202"><g
             id="g204" /><g
             id="g212"><g
               style="opacity:0.30000299"
               id="g210"
               clip-path="url(#clipPath208)" /></g></g></g></g><g
       id="g214"><g
         clip-path="url(#clipPath220)"
         id="g216"><g
           id="g222"><g
             id="g224" /><g
             id="g232"><g
               style="opacity:0.30000299"
               id="g230"
               clip-path="url(#clipPath228)" /></g></g></g></g><g
       id="g234"><g
         clip-path="url(#clipPath240)"
         id="g236"><g
           transform="translate(96,172)"
           id="g242"><path
             id="path244"
             style="fill:#006838;fill-opacity:1;fill-rule:nonzero;stroke:none"
             d="m 0,0 c 32.007,0 40.226,-26.122 40.226,-43.321 v -21.66 c 0,-18.14 -17.179,-41.773 -40.226,-41.773 -23.047,0 -40.226,23.63 -40.226,41.773 v 24.755 C -40.226,-23.028 -32.01,0 0,0" /></g></g></g><g
       id="g246"><g
         clip-path="url(#clipPath252)"
         id="g248"><g
           id="g254"><g
             id="g256" /><g
             id="g266"><g
               style="opacity:0.14999402"
               id="g264"
               clip-path="url(#clipPath260)"><path
                 id="path262"
                 style="fill:#ffffff;fill-opacity:1;fill-rule:nonzero;stroke:none"
                 d="M 55.774,172 H 96 V 63.698 H 55.774 Z" /></g></g></g><g
           transform="translate(121.5282,107.0191)"
           id="g268"><path
             id="path270"
             style="fill:#ffffff;fill-opacity:1;fill-rule:evenodd;stroke:none"
             d="m 0,0 c 0,9.283 -1.547,18.566 -24.755,18.566 -6.188,0 -12.377,0 -12.377,6.189 0,6.188 6.189,6.188 12.377,6.188 12.378,0 12.378,-6.188 12.378,-6.188 l 9.669,6.188 c 0,0 -2.679,9.517 -15.858,11.86 V 55.698 H -30.943 V 42.831 c -12.39,-2.01 -18.566,-10.038 -18.566,-18.076 0,-6.189 0,-18.566 23.207,-18.566 6.189,0 13.925,0 13.925,-6.189 0,-6.189 -8.123,-6.189 -14.312,-6.189 -12.377,0 -11.99,6.189 -11.99,6.189 l -12.377,-4.255 c 0,0 1.426,-13.058 20.113,-14.219 v -12.469 h 12.377 v 12.888 C -4.32,-16.347 0,-10.331 0,0" /></g></g></g></g></svg>