<?xml version="1.0" encoding="UTF-8" standalone="no"?>
<svg
   xmlns:dc="http://purl.org/dc/elements/1.1/"
   xmlns:cc="http://creativecommons.org/ns#"
   xmlns:rdf="http://www.w3.org/1999/02/22-rdf-syntax-ns#"
   xmlns:svg="http://www.w3.org/2000/svg"
   xmlns="http://www.w3.org/2000/svg"
   viewBox="0 0 256 256"
   height="256"
   width="256"
   xml:space="preserve"
   id="svg2"
   version="1.1"><metadata
     id="metadata8"><rdf:RDF><cc:Work
         rdf:about=""><dc:format>image/svg+xml</dc:format><dc:type
           rdf:resource="http://purl.org/dc/dcmitype/StillImage" /></cc:Work></rdf:RDF></metadata><defs
     id="defs6"><clipPath
       id="clipPath18"
       clipPathUnits="userSpaceOnUse"><path
         id="path16"
         d="M 0,192 H 192 V 0 H 0 Z" /></clipPath><clipPath
       id="clipPath26"
       clipPathUnits="userSpaceOnUse"><path
         id="path24"
         d="M 33.5488,158.451 H 282.451 V -90.4512 H 33.5488 Z" /></clipPath><clipPath
       id="clipPath30"
       clipPathUnits="userSpaceOnUse"><path
         id="path28"
         d="M 158,-90.451 33.549,34 158,158.451 282.451,34 Z" /></clipPath><clipPath
       id="clipPath34"
       clipPathUnits="userSpaceOnUse"><path
         id="path32"
         d="M -32768,32767 H 32767 V -32768 H -32768 Z" /></clipPath><linearGradient
       id="linearGradient42"
       spreadMethod="pad"
       gradientTransform="matrix(-121.33324,121.66661,121.66661,121.33324,214.58253,-22.737997)"
       gradientUnits="userSpaceOnUse"
       y2="0"
       x2="1"
       y1="0"
       x1="0"><stop
         id="stop36"
         offset="0"
         style="stop-opacity:0;stop-color:#ffffff" /><stop
         id="stop38"
         offset="0.72566061"
         style="stop-opacity:0;stop-color:#ffffff" /><stop
         id="stop40"
         offset="1"
         style="stop-opacity:1;stop-color:#ffffff" /></linearGradient><mask
       id="mask44"
       height="1"
       width="1"
       y="0"
       x="0"
       maskUnits="userSpaceOnUse"><g
         id="g54"><g
           id="g52"
           clip-path="url(#clipPath34)"><g
             id="g50"><g
               id="g48"><path
                 id="path46"
                 style="fill:url(#linearGradient42);stroke:none"
                 d="M -32768,32767 H 32767 V -32768 H -32768 Z" /></g></g></g></g></mask><linearGradient
       id="linearGradient62"
       spreadMethod="pad"
       gradientTransform="matrix(-121.33324,121.66661,121.66661,121.33324,214.58253,-22.737997)"
       gradientUnits="userSpaceOnUse"
       y2="0"
       x2="1"
       y1="0"
       x1="0"><stop
         id="stop56"
         offset="0"
         style="stop-opacity:1;stop-color:#1d1d1b" /><stop
         id="stop58"
         offset="0.72566061"
         style="stop-opacity:1;stop-color:#1d1d1b" /><stop
         id="stop60"
         offset="1"
         style="stop-opacity:1;stop-color:#1d1d1b" /></linearGradient><clipPath
       id="clipPath92"
       clipPathUnits="userSpaceOnUse"><path
         id="path90"
         d="M 8,96 C 8,47.399 47.398,8 96,8 v 0 c 48.6,0 88,39.399 88,88 v 0 c 0,48.601 -39.4,88 -88,88 v 0 C 47.398,184 8,144.601 8,96" /></clipPath><clipPath
       id="clipPath104"
       clipPathUnits="userSpaceOnUse"><path
         id="path102"
         d="m 48.587,123.31 c 0,-26.931 -1.898,-35.276 -17.829,-44.379 v 0 c 16.311,-31.862 114.173,-31.862 130.483,0 v 0 c -15.931,9.103 -17.827,17.448 -17.827,44.379 v 0 c 0,26.932 -17.448,48.552 -47.414,48.552 v 0 c -29.965,0 -47.413,-21.62 -47.413,-48.552" /></clipPath><clipPath
       id="clipPath112"
       clipPathUnits="userSpaceOnUse"><path
         id="path110"
         d="m 96,171.862 h 68.528 V 39.8621 H 96 Z" /></clipPath><clipPath
       id="clipPath126"
       clipPathUnits="userSpaceOnUse"><path
         id="path124"
         d="M 8,96 C 8,47.399 47.398,8 96,8 v 0 c 48.6,0 88,39.399 88,88 v 0 c 0,48.601 -39.4,88 -88,88 v 0 C 47.398,184 8,144.601 8,96" /></clipPath><clipPath
       id="clipPath138"
       clipPathUnits="userSpaceOnUse"><path
         id="path136"
         d="m 80.827,71.724 c 0,0 -6.069,-3.034 -42.483,-21.241 v 0 C 32.649,47.635 29.626,45.456 27.708,40.496 v 0 C 43.844,20.666 68.442,8 96,8 v 0 c 27.557,0 52.156,12.667 68.292,32.496 v 0 c -1.918,4.959 -4.942,7.139 -10.637,9.987 v 0 c -38.861,19.431 -42.482,21.241 -42.482,21.241 v 0 z" /></clipPath><clipPath
       id="clipPath146"
       clipPathUnits="userSpaceOnUse"><path
         id="path144"
         d="M 19.8817,64.2386 H 96 V 8 H 19.8817 Z" /></clipPath><clipPath
       id="clipPath162"
       clipPathUnits="userSpaceOnUse"><path
         id="path160"
         d="M 8,96 C 8,47.399 47.398,8 96,8 v 0 c 48.6,0 88,39.399 88,88 v 0 c 0,48.601 -39.4,88 -88,88 v 0 C 47.398,184 8,144.601 8,96" /></clipPath><clipPath
       id="clipPath174"
       clipPathUnits="userSpaceOnUse"><path
         id="path172"
         d="M 77.771,83.127 V 61.865 C 77.771,52.75 80.05,45.981 96,39.08 v 0 c 15.949,6.901 18.227,13.67 18.227,22.785 v 0 21.262 z" /></clipPath><clipPath
       id="clipPath182"
       clipPathUnits="userSpaceOnUse"><path
         id="path180"
         d="M 77.7931,100.99 H 134.995 V 46.9415 H 77.7931 Z" /></clipPath><clipPath
       id="clipPath198"
       clipPathUnits="userSpaceOnUse"><path
         id="path196"
         d="M 8,96 C 8,47.399 47.398,8 96,8 v 0 c 48.6,0 88,39.399 88,88 v 0 c 0,48.601 -39.4,88 -88,88 v 0 C 47.398,184 8,144.601 8,96" /></clipPath><clipPath
       id="clipPath210"
       clipPathUnits="userSpaceOnUse"><path
         id="path208"
         d="M 56.551,129.38 V 105.104 C 56.551,87.312 73.399,64.138 96,64.138 v 0 c 22.601,0 39.448,23.176 39.448,40.966 v 0 21.241 c 0,16.866 -8.06,42.482 -39.448,42.482 v 0 c -31.391,0 -39.449,-22.582 -39.449,-39.447" /></clipPath><clipPath
       id="clipPath218"
       clipPathUnits="userSpaceOnUse"><path
         id="path216"
         d="M 56.5517,168.827 H 96 V 62.6207 H 56.5517 Z" /></clipPath><clipPath
       id="clipPath232"
       clipPathUnits="userSpaceOnUse"><path
         id="path230"
         d="M 56.5517,190.069 H 96 V 111.361 H 56.5517 Z" /></clipPath><clipPath
       id="clipPath252"
       clipPathUnits="userSpaceOnUse"><path
         id="path250"
         d="m 96,190.069 h 39.448 V 111.361 H 96 Z" /></clipPath></defs><g
     transform="matrix(1.3333333,0,0,-1.3333333,0,256)"
     id="g10"><g
       id="g12"><g
         clip-path="url(#clipPath18)"
         id="g14"><g
           id="g20"><g
             id="g22" /><g
             id="g80"><g
               style="opacity:0.5"
               id="g78"
               clip-path="url(#clipPath26)"><g
                 id="g76"><g
                   id="g74"
                   clip-path="url(#clipPath30)"><g
                     id="g72"><g
                       id="g64" /><g
                       id="g70"
                       mask="url(#mask44)"><g
                         id="g68"><path
                           id="path66"
                           style="fill:url(#linearGradient62);stroke:none"
                           d="M 158,-90.451 33.549,34 158,158.451 282.451,34 Z" /></g></g></g></g></g></g></g></g><g
           transform="translate(184,96)"
           id="g82"><path
             id="path84"
             style="fill:#93c01f;fill-opacity:1;fill-rule:nonzero;stroke:none"
             d="m 0,0 c 0,-48.601 -39.399,-88 -88,-88 -48.602,0 -88,39.399 -88,88 0,48.601 39.398,88 88,88 C -39.399,88 0,48.601 0,0" /></g></g></g><g
       id="g86"><g
         clip-path="url(#clipPath92)"
         id="g88"><g
           transform="translate(96,171.862)"
           id="g94"><path
             id="path96"
             style="fill:#75a2d8;fill-opacity:1;fill-rule:nonzero;stroke:none"
             d="m 0,0 c 29.965,0 47.414,-21.621 47.414,-48.552 0,-26.931 1.896,-35.276 17.827,-44.379 -16.31,-31.862 -114.172,-31.862 -130.482,0 15.931,9.103 17.827,17.448 17.827,44.379 C -47.414,-21.621 -29.965,0 0,0" /></g></g></g><g
       id="g98"><g
         clip-path="url(#clipPath104)"
         id="g100"><g
           id="g106"><g
             id="g108" /><g
             id="g118"><g
               style="opacity:0.14999402"
               id="g116"
               clip-path="url(#clipPath112)"><path
                 id="path114"
                 style="fill:#231f20;fill-opacity:1;fill-rule:nonzero;stroke:none"
                 d="M 164.528,39.862 H 96 v 132 h 68.528 z" /></g></g></g></g></g><g
       id="g120"><g
         clip-path="url(#clipPath126)"
         id="g122"><g
           transform="translate(80.8276,71.7241)"
           id="g128"><path
             id="path130"
             style="fill:#dbdbc7;fill-opacity:1;fill-rule:evenodd;stroke:none"
             d="m 0,0 c 0,0 -6.069,-3.034 -42.483,-21.241 -12.138,-6.069 -12.138,-9.104 -15.172,-42.483 H 88 C 84.965,-30.345 84.965,-27.31 72.828,-21.241 33.966,-1.811 30.345,0 30.345,0 Z" /></g></g></g><g
       id="g132"><g
         clip-path="url(#clipPath138)"
         id="g134"><g
           id="g140"><g
             id="g142" /><g
             id="g154"><g
               style="opacity:0.30000299"
               id="g152"
               clip-path="url(#clipPath146)"><g
                 id="g150"
                 transform="translate(96,8)"><path
                   id="path148"
                   style="fill:#ffffff;fill-opacity:1;fill-rule:nonzero;stroke:none"
                   d="m 0,0 h -76.118 l 0.256,56.239 h 24.019 L 0,26.309 Z" /></g></g></g></g></g></g><g
       id="g156"><g
         clip-path="url(#clipPath162)"
         id="g158"><g
           transform="translate(96,39.0798)"
           id="g164"><path
             id="path166"
             style="fill:#85ded8;fill-opacity:1;fill-rule:evenodd;stroke:none"
             d="M 0,0 C -15.95,6.902 -18.229,13.67 -18.229,22.785 V 44.047 H 18.228 V 22.785 C 18.228,13.67 15.949,6.902 0,0" /></g></g></g><g
       id="g168"><g
         clip-path="url(#clipPath174)"
         id="g170"><g
           id="g176"><g
             id="g178" /><g
             id="g190"><g
               style="opacity:0.14999402"
               id="g188"
               clip-path="url(#clipPath182)"><g
                 id="g186"
                 transform="translate(134.9949,78.4776)"><path
                   id="path184"
                   style="fill:#231f20;fill-opacity:1;fill-rule:nonzero;stroke:none"
                   d="M 0,0 -38.995,22.513 -57.202,-9.023 -18.207,-31.536 Z" /></g></g></g></g></g></g><g
       id="g192"><g
         clip-path="url(#clipPath198)"
         id="g194"><g
           transform="translate(96,168.8275)"
           id="g200"><path
             id="path202"
             style="fill:#85ded8;fill-opacity:1;fill-rule:evenodd;stroke:none"
             d="m 0,0 c 31.388,0 39.448,-25.617 39.448,-42.483 v -21.241 c 0,-17.789 -16.847,-40.966 -39.448,-40.966 -22.601,0 -39.448,23.174 -39.448,40.966 v 24.276 C -39.448,-22.582 -31.391,0 0,0" /></g></g></g><g
       id="g204"><g
         clip-path="url(#clipPath210)"
         id="g206"><g
           id="g212"><g
             id="g214" /><g
             id="g224"><g
               style="opacity:0.14999402"
               id="g222"
               clip-path="url(#clipPath218)"><path
                 id="path220"
                 style="fill:#ffffff;fill-opacity:1;fill-rule:nonzero;stroke:none"
                 d="M 56.552,168.827 H 96 V 62.62 H 56.552 Z" /></g></g></g><g
           id="g226"><g
             id="g228" /><g
             id="g240"><g
               style="opacity:0.5"
               id="g238"
               clip-path="url(#clipPath232)"><g
                 id="g236"
                 transform="translate(56.5517,190.0689)"><path
                   id="path234"
                   style="fill:#75a2d8;fill-opacity:1;fill-rule:nonzero;stroke:none"
                   d="M 0,0 39.448,-0.763 V -34.694 C 25.721,-58.47 0,-78.708 0,-78.708 Z" /></g></g></g></g><g
           transform="translate(135.4483,190.0689)"
           id="g242"><path
             id="path244"
             style="fill:#75a2d8;fill-opacity:1;fill-rule:nonzero;stroke:none"
             d="M 0,0 -39.448,-0.763 V -34.694 C -25.719,-58.47 0,-78.708 0,-78.708 Z" /></g><g
           id="g246"><g
             id="g248" /><g
             id="g260"><g
               style="opacity:0.14999402"
               id="g258"
               clip-path="url(#clipPath252)"><g
                 id="g256"
                 transform="translate(135.4483,190.0689)"><path
                   id="path254"
                   style="fill:#231f20;fill-opacity:1;fill-rule:nonzero;stroke:none"
                   d="M 0,0 -39.448,-0.763 V -34.694 C -25.719,-58.47 0,-78.708 0,-78.708 Z" /></g></g></g></g></g></g></g></svg>